<mxfile host="app.diagrams.net" modified="2022-06-04T08:03:45.213Z" agent="5.0 (Macintosh)" etag="ywHEkWfqVcH0H3InFQrD" version="19.0.0" type="github">
  <diagram id="EvmGW5eJA6B6GOvf50vk" name="Page-1">
    <mxGraphModel dx="1144" dy="1403" grid="1" gridSize="10" guides="1" tooltips="1" connect="1" arrows="1" fold="1" page="1" pageScale="1" pageWidth="850" pageHeight="1100" math="0" shadow="0">
      <root>
        <mxCell id="0" />
        <mxCell id="1" parent="0" />
        <mxCell id="NHqjJ5bTHnNJWVt42GKJ-21" value="" style="group" vertex="1" connectable="0" parent="1">
          <mxGeometry x="30" y="80" width="425" height="370" as="geometry" />
        </mxCell>
        <mxCell id="NHqjJ5bTHnNJWVt42GKJ-9" value="" style="endArrow=none;html=1;rounded=0;entryX=1;entryY=0.5;entryDx=0;entryDy=0;" edge="1" parent="NHqjJ5bTHnNJWVt42GKJ-21" target="NHqjJ5bTHnNJWVt42GKJ-6">
          <mxGeometry width="50" height="50" relative="1" as="geometry">
            <mxPoint y="240" as="sourcePoint" />
            <mxPoint x="50" y="190" as="targetPoint" />
          </mxGeometry>
        </mxCell>
        <mxCell id="NHqjJ5bTHnNJWVt42GKJ-12" value="" style="endArrow=none;html=1;rounded=0;entryX=0;entryY=0.5;entryDx=0;entryDy=0;" edge="1" parent="NHqjJ5bTHnNJWVt42GKJ-21" target="NHqjJ5bTHnNJWVt42GKJ-3">
          <mxGeometry width="50" height="50" relative="1" as="geometry">
            <mxPoint y="119.5" as="sourcePoint" />
            <mxPoint x="330" y="119.5" as="targetPoint" />
          </mxGeometry>
        </mxCell>
        <mxCell id="NHqjJ5bTHnNJWVt42GKJ-20" value="" style="group" vertex="1" connectable="0" parent="NHqjJ5bTHnNJWVt42GKJ-21">
          <mxGeometry x="20" width="405" height="370" as="geometry" />
        </mxCell>
        <mxCell id="NHqjJ5bTHnNJWVt42GKJ-1" value="Master" style="rounded=0;whiteSpace=wrap;html=1;fillColor=#dae8fc;strokeColor=#6c8ebf;" vertex="1" parent="NHqjJ5bTHnNJWVt42GKJ-20">
          <mxGeometry width="120" height="50" as="geometry" />
        </mxCell>
        <mxCell id="NHqjJ5bTHnNJWVt42GKJ-3" value="" style="ellipse;whiteSpace=wrap;html=1;aspect=fixed;fillColor=#dae8fc;strokeColor=#6c8ebf;" vertex="1" parent="NHqjJ5bTHnNJWVt42GKJ-20">
          <mxGeometry x="365" y="100" width="40" height="40" as="geometry" />
        </mxCell>
        <mxCell id="NHqjJ5bTHnNJWVt42GKJ-8" value="test" style="rounded=0;whiteSpace=wrap;html=1;fillColor=#d5e8d4;strokeColor=#82b366;" vertex="1" parent="NHqjJ5bTHnNJWVt42GKJ-20">
          <mxGeometry x="230" y="320" width="120" height="50" as="geometry" />
        </mxCell>
        <mxCell id="NHqjJ5bTHnNJWVt42GKJ-4" value="" style="ellipse;whiteSpace=wrap;html=1;aspect=fixed;fillColor=#d5e8d4;strokeColor=#82b366;" vertex="1" parent="NHqjJ5bTHnNJWVt42GKJ-20">
          <mxGeometry x="40" y="220" width="40" height="40" as="geometry" />
        </mxCell>
        <mxCell id="NHqjJ5bTHnNJWVt42GKJ-5" value="" style="ellipse;whiteSpace=wrap;html=1;aspect=fixed;fillColor=#d5e8d4;strokeColor=#82b366;" vertex="1" parent="NHqjJ5bTHnNJWVt42GKJ-20">
          <mxGeometry x="150" y="220" width="40" height="40" as="geometry" />
        </mxCell>
        <mxCell id="NHqjJ5bTHnNJWVt42GKJ-6" value="" style="ellipse;whiteSpace=wrap;html=1;aspect=fixed;fillColor=#d5e8d4;strokeColor=#82b366;" vertex="1" parent="NHqjJ5bTHnNJWVt42GKJ-20">
          <mxGeometry x="270" y="220" width="40" height="40" as="geometry" />
        </mxCell>
        <mxCell id="NHqjJ5bTHnNJWVt42GKJ-18" style="edgeStyle=orthogonalEdgeStyle;curved=1;rounded=0;orthogonalLoop=1;jettySize=auto;html=1;" edge="1" parent="NHqjJ5bTHnNJWVt42GKJ-20" source="NHqjJ5bTHnNJWVt42GKJ-8" target="NHqjJ5bTHnNJWVt42GKJ-6">
          <mxGeometry relative="1" as="geometry" />
        </mxCell>
        <mxCell id="NHqjJ5bTHnNJWVt42GKJ-2" value="" style="ellipse;whiteSpace=wrap;html=1;aspect=fixed;fillColor=#dae8fc;strokeColor=#6c8ebf;" vertex="1" parent="NHqjJ5bTHnNJWVt42GKJ-20">
          <mxGeometry x="40" y="100" width="40" height="40" as="geometry" />
        </mxCell>
        <mxCell id="NHqjJ5bTHnNJWVt42GKJ-19" style="edgeStyle=orthogonalEdgeStyle;curved=1;rounded=0;orthogonalLoop=1;jettySize=auto;html=1;entryX=0.5;entryY=0;entryDx=0;entryDy=0;" edge="1" parent="NHqjJ5bTHnNJWVt42GKJ-20" source="NHqjJ5bTHnNJWVt42GKJ-1" target="NHqjJ5bTHnNJWVt42GKJ-2">
          <mxGeometry relative="1" as="geometry" />
        </mxCell>
        <mxCell id="NHqjJ5bTHnNJWVt42GKJ-17" value="" style="endArrow=none;html=1;rounded=0;edgeStyle=orthogonalEdgeStyle;curved=1;entryX=0;entryY=0.5;entryDx=0;entryDy=0;" edge="1" parent="NHqjJ5bTHnNJWVt42GKJ-20" target="NHqjJ5bTHnNJWVt42GKJ-3">
          <mxGeometry width="50" height="50" relative="1" as="geometry">
            <mxPoint x="310" y="240" as="sourcePoint" />
            <mxPoint x="360" y="190" as="targetPoint" />
          </mxGeometry>
        </mxCell>
        <mxCell id="NHqjJ5bTHnNJWVt42GKJ-22" value="" style="shape=flexArrow;endArrow=classic;html=1;rounded=0;curved=1;" edge="1" parent="1">
          <mxGeometry width="50" height="50" relative="1" as="geometry">
            <mxPoint x="480" y="280" as="sourcePoint" />
            <mxPoint x="560" y="280" as="targetPoint" />
          </mxGeometry>
        </mxCell>
        <mxCell id="NHqjJ5bTHnNJWVt42GKJ-23" value="&lt;div style=&quot;font-size: 15px;&quot;&gt;&lt;font style=&quot;font-size: 15px;&quot;&gt;App Store&lt;/font&gt;&lt;/div&gt;" style="rounded=1;whiteSpace=wrap;html=1;" vertex="1" parent="1">
          <mxGeometry x="610" y="230" width="120" height="80" as="geometry" />
        </mxCell>
      </root>
    </mxGraphModel>
  </diagram>
</mxfile>
